# xmcd CD database file
# Copyright (C) 1996 Ti Kan
#
# Track frame offsets:
#  150
#  12042
#  34285
#  49202
#  66065
#  85722
#  97590
#  110020
#  125842
#  144262
#  157202
#  173212
#  190527
#  208217
#
# Disc length: 2970 seconds
#
# Revision: 2
# Processed by: cddbd v1.4b41PL1 Copyright (c) Steve Scherf et al.
# Submitted via: CDWizzard Release:4.12
#
DISCID=bc0b980e
DTITLE=Dave "Honeyboy" Edwards - I've Been Around
DYEAR=1900
DGENRE=
TTITLE0=Pony Blues
TTITLE1=Sad and Lonesome
TTITLE2=Hambone Blues
TTITLE3=Ride With Me Tonight
TTITLE4=I'm A Country Man
TTITLE5=Banty Rooster
TTITLE6=Take Me In Your Arms
TTITLE7=You're Gonna Miss Me
TTITLE8=I Feel So Good Today
TTITLE9=Things Have Changed
TTITLE10=Big Fat Mama
TTITLE11=Eyes Full Of Tears
TTITLE12=The Woman I'm Loving
TTITLE13=Big Road Blues
EXTD=Trix 3319\n\nProduced by Honeyboy Edwards and Pete Lowry\n\nDavid "H
EXTD=oneyboy" Edwards:  vocals, guitar, and harmonica\nWalter Horton:  harm
EXTD=onica\nEddie El:  guitar
EXTT0=
EXTT1=
EXTT2=
EXTT3=
EXTT4=
EXTT5=
EXTT6=
EXTT7=
EXTT8=
EXTT9=
EXTT10=
EXTT11=
EXTT12=
EXTT13=
PLAYORDER=
